<svg width="1281" height="550" viewBox="0 0 1281 550" fill="none" xmlns="http://www.w3.org/2000/svg">
<mask id="mask0_31_168" style="mask-type:luminance" maskUnits="userSpaceOnUse" x="0" y="105" width="342" height="343">
<path d="M0 105.997H341.829V447.815H0V105.997Z" fill="white"/>
</mask>
<g mask="url(#mask0_31_168)">
<mask id="mask1_31_168" style="mask-type:luminance" maskUnits="userSpaceOnUse" x="0" y="105" width="342" height="343">
<path d="M170.92 105.997C76.5181 105.997 0 182.515 0 276.906C0 371.297 76.5181 447.815 170.92 447.815C265.311 447.815 341.829 371.297 341.829 276.906C341.829 182.515 265.311 105.997 170.92 105.997Z" fill="white"/>
</mask>
<g mask="url(#mask1_31_168)">
<path d="M0 105.997H341.829V447.815H0V105.997Z" fill="url(#paint0_linear_31_168)"/>
</g>
</g>
<mask id="mask2_31_168" style="mask-type:luminance" maskUnits="userSpaceOnUse" x="57" y="65" width="228" height="446">
<path d="M57.6953 65.2361H284.539V510.028H57.6953V65.2361Z" fill="white"/>
</mask>
<g mask="url(#mask2_31_168)">
<path d="M170.156 65.2361H284.504L193.808 218.62H260.84L57.7764 510.028L148.472 284.018L75.5217 287.609L170.156 65.2361Z" fill="#FEDD2B"/>
</g>
<mask id="mask3_31_168" style="mask-type:luminance" maskUnits="userSpaceOnUse" x="57" y="65" width="136" height="446">
<path d="M57.6953 65.2361H192.314V510.028H57.6953V65.2361Z" fill="white"/>
</mask>
<g mask="url(#mask3_31_168)">
<path d="M170.156 65.2361H189.87L75.5217 287.609L170.156 65.2361ZM57.7764 510.028L162.268 284.018H148.472L57.7764 510.028Z" fill="#F9CA0A"/>
</g>
<path d="M516.923 354.624V332.137H539.671V462.873H516.923V440.387C505.767 457.644 489.294 466.272 467.505 466.272C449.027 466.272 433.426 459.648 420.701 446.4C407.802 432.978 401.352 416.68 401.352 397.505C401.352 378.505 407.802 362.294 420.701 348.871C433.601 335.449 449.202 328.738 467.505 328.738C489.294 328.738 505.767 337.367 516.923 354.624ZM470.381 444.309C483.629 444.309 494.698 439.864 503.588 430.974C512.478 421.735 516.923 410.579 516.923 397.505C516.923 384.257 512.478 373.188 503.588 364.298C494.698 355.234 483.629 350.702 470.381 350.702C457.307 350.702 446.326 355.234 437.436 364.298C428.545 373.188 424.1 384.257 424.1 397.505C424.1 410.579 428.545 421.735 437.436 430.974C446.326 439.864 457.307 444.309 470.381 444.309ZM634.798 332.137V354.101H600.022V424.96C600.022 431.409 601.242 436.029 603.682 438.818C606.297 441.432 610.219 442.827 615.449 443.001C620.678 443.001 627.128 442.827 634.798 442.478V462.873C614.751 465.488 600.109 463.832 590.87 457.905C581.806 451.978 577.274 440.997 577.274 424.96V354.101H551.388V332.137H577.274V302.33L600.022 295.531V332.137H634.798ZM726.556 367.436C726.556 375.803 735.184 382.34 752.441 387.046C758.891 388.441 764.295 389.923 768.653 391.491C773.185 392.886 778.066 395.065 783.295 398.028C788.699 400.991 792.795 404.914 795.584 409.794C798.373 414.675 799.768 420.428 799.768 427.051C799.768 438.905 795.148 448.405 785.91 455.552C776.671 462.699 764.992 466.272 750.873 466.272C738.322 466.272 727.427 463.57 718.189 458.167C709.124 452.589 702.675 445.093 698.84 435.68L718.45 424.437C720.542 430.712 724.464 435.68 730.216 439.341C735.969 443.001 742.854 444.832 750.873 444.832C758.717 444.832 764.992 443.35 769.699 440.387C774.405 437.423 776.758 432.978 776.758 427.051C776.758 418.161 768.13 411.712 750.873 407.703C745.12 406.134 740.762 404.914 737.799 404.042C734.836 403.17 730.739 401.602 725.51 399.336C720.455 397.069 716.62 394.716 714.005 392.276C711.39 389.661 708.95 386.262 706.684 382.078C704.592 377.721 703.546 372.927 703.546 367.697C703.546 356.367 707.904 347.041 716.62 339.72C725.51 332.399 736.579 328.738 749.827 328.738C760.46 328.738 769.873 331.179 778.066 336.059C786.433 340.766 792.708 347.39 796.892 355.931L777.804 366.652C773.098 355.495 763.772 349.917 749.827 349.917C743.203 349.917 737.625 351.486 733.092 354.624C728.735 357.762 726.556 362.032 726.556 367.436ZM874.114 466.272C854.416 466.272 838.03 459.735 824.957 446.662C811.883 433.414 805.347 417.028 805.347 397.505C805.347 377.982 811.883 361.684 824.957 348.61C838.03 335.362 854.416 328.738 874.114 328.738C887.013 328.738 898.605 331.876 908.889 338.151C919.174 344.252 926.844 352.532 931.899 362.991L912.811 373.973C909.499 367 904.357 361.422 897.385 357.239C890.586 353.055 882.829 350.963 874.114 350.963C861.04 350.963 850.058 355.408 841.168 364.298C832.452 373.363 828.095 384.432 828.095 397.505C828.095 410.404 832.452 421.386 841.168 430.451C850.058 439.341 861.04 443.786 874.114 443.786C882.829 443.786 890.673 441.781 897.646 437.772C904.619 433.588 909.935 428.01 913.596 421.038L932.945 432.281C927.192 442.74 919.087 451.02 908.628 457.121C898.169 463.222 886.664 466.272 874.114 466.272ZM1051.41 354.624V332.137H1074.16V462.873H1051.41V440.387C1040.25 457.644 1023.78 466.272 1001.99 466.272C983.512 466.272 967.911 459.648 955.186 446.4C942.287 432.978 935.837 416.68 935.837 397.505C935.837 378.505 942.287 362.294 955.186 348.871C968.085 335.449 983.686 328.738 1001.99 328.738C1023.78 328.738 1040.25 337.367 1051.41 354.624ZM1004.87 444.309C1018.11 444.309 1029.18 439.864 1038.07 430.974C1046.96 421.735 1051.41 410.579 1051.41 397.505C1051.41 384.257 1046.96 373.188 1038.07 364.298C1029.18 355.234 1018.11 350.702 1004.87 350.702C991.792 350.702 980.81 355.234 971.92 364.298C963.03 373.188 958.585 384.257 958.585 397.505C958.585 410.579 963.03 421.735 971.92 430.974C980.81 439.864 991.792 444.309 1004.87 444.309ZM1120.91 462.873H1098.16V271.999H1120.91V462.873ZM1270.66 407.964H1161.11C1163.37 419.469 1168.69 428.533 1177.05 435.157C1185.42 441.607 1195.88 444.832 1208.43 444.832C1225.69 444.832 1238.24 438.469 1246.08 425.744L1265.43 436.726C1252.53 456.423 1233.36 466.272 1207.91 466.272C1187.34 466.272 1170.43 459.823 1157.18 446.923C1144.28 433.675 1137.83 417.203 1137.83 397.505C1137.83 377.633 1144.2 361.248 1156.92 348.349C1169.65 335.275 1186.12 328.738 1206.34 328.738C1225.51 328.738 1241.12 335.536 1253.14 349.133C1265.35 362.381 1271.45 378.592 1271.45 397.767C1271.45 401.079 1271.18 404.478 1270.66 407.964ZM1206.34 350.179C1194.31 350.179 1184.2 353.578 1176.01 360.376C1167.99 367.174 1163.02 376.413 1161.11 388.092H1248.44C1246.52 376.065 1241.73 366.739 1234.06 360.115C1226.39 353.491 1217.15 350.179 1206.34 350.179Z" fill="#1F1F1F"/>
<path d="M516.923 121.751V99.2642H539.671V230H516.923V207.513C505.767 224.771 489.294 233.399 467.505 233.399C449.027 233.399 433.426 226.775 420.701 213.527C407.802 200.105 401.352 183.807 401.352 164.632C401.352 145.632 407.802 129.421 420.701 115.998C433.601 102.576 449.202 95.8651 467.505 95.8651C489.294 95.8651 505.767 104.494 516.923 121.751ZM470.381 211.436C483.629 211.436 494.698 206.99 503.588 198.1C512.478 188.862 516.923 177.706 516.923 164.632C516.923 151.384 512.478 140.315 503.588 131.425C494.698 122.361 483.629 117.829 470.381 117.829C457.307 117.829 446.326 122.361 437.436 131.425C428.545 140.315 424.1 151.384 424.1 164.632C424.1 177.706 428.545 188.862 437.436 198.1C446.326 206.99 457.307 211.436 470.381 211.436ZM635.843 95.8651C654.146 95.8651 669.748 102.576 682.647 115.998C695.546 129.421 701.996 145.632 701.996 164.632C701.996 183.807 695.546 200.105 682.647 213.527C669.922 226.775 654.321 233.399 635.843 233.399C614.228 233.399 597.756 224.771 586.425 207.513V282.294H563.677V99.2642H586.425V121.751C597.756 104.494 614.228 95.8651 635.843 95.8651ZM632.967 211.436C646.041 211.436 657.023 206.99 665.913 198.1C674.803 188.862 679.248 177.706 679.248 164.632C679.248 151.384 674.803 140.315 665.913 131.425C657.023 122.361 646.041 117.829 632.967 117.829C619.719 117.829 608.65 122.361 599.76 131.425C590.87 140.315 586.425 151.384 586.425 164.632C586.425 177.706 590.87 188.862 599.76 198.1C608.65 206.99 619.719 211.436 632.967 211.436ZM790.847 95.8651C809.15 95.8651 824.751 102.576 837.651 115.998C850.55 129.421 856.999 145.632 856.999 164.632C856.999 183.807 850.55 200.105 837.651 213.527C824.926 226.775 809.324 233.399 790.847 233.399C769.232 233.399 752.759 224.771 741.429 207.513V282.294H718.681V99.2642H741.429V121.751C752.759 104.494 769.232 95.8651 790.847 95.8651ZM787.971 211.436C801.044 211.436 812.026 206.99 820.916 198.1C829.806 188.862 834.251 177.706 834.251 164.632C834.251 151.384 829.806 140.315 820.916 131.425C812.026 122.361 801.044 117.829 787.971 117.829C774.723 117.829 763.654 122.361 754.764 131.425C745.874 140.315 741.429 151.384 741.429 164.632C741.429 177.706 745.874 188.862 754.764 198.1C763.654 206.99 774.723 211.436 787.971 211.436ZM896.433 230H873.685V39.1257H896.433V230ZM974.28 201.761L1011.93 99.2642H1036.25L982.908 238.106C977.156 252.922 969.225 264.166 959.114 271.835C949.178 279.68 937.761 283.166 924.862 282.294V261.115C940.898 262.335 952.665 253.445 960.16 234.445L962.513 229.477L905.513 99.2642H929.829L974.28 201.761Z" fill="#1F1F1F"/>
<defs>
<linearGradient id="paint0_linear_31_168" x1="0" y1="105.997" x2="409.87" y2="313.267" gradientUnits="userSpaceOnUse">
<stop stop-color="#3D90AB"/>
<stop offset="1" stop-color="#075773"/>
</linearGradient>
</defs>
</svg>