<svg xmlns="http://www.w3.org/2000/svg" xmlns:xlink="http://www.w3.org/1999/xlink" zoomAndPan="magnify" preserveAspectRatio="xMidYMid meet" version="1.0" viewBox="8.14 116.12 351.07 150"><defs><g/><clipPath id="97deea74ce"><path d="M 8.144531 129.863281 L 123.421875 129.863281 L 123.421875 245.136719 L 8.144531 245.136719 Z M 8.144531 129.863281 " clip-rule="nonzero"/></clipPath><clipPath id="96dbb0a85e"><path d="M 65.785156 129.863281 C 33.949219 129.863281 8.144531 155.667969 8.144531 187.5 C 8.144531 219.332031 33.949219 245.136719 65.785156 245.136719 C 97.617188 245.136719 123.421875 219.332031 123.421875 187.5 C 123.421875 155.667969 97.617188 129.863281 65.785156 129.863281 " clip-rule="nonzero"/></clipPath><clipPath id="0278f69070"><path d="M 27.601562 116.117188 L 104.101562 116.117188 L 104.101562 266.117188 L 27.601562 266.117188 Z M 27.601562 116.117188 " clip-rule="nonzero"/></clipPath><clipPath id="87d6b99879"><path d="M 27.601562 116.117188 L 73 116.117188 L 73 266.117188 L 27.601562 266.117188 Z M 27.601562 116.117188 " clip-rule="nonzero"/></clipPath></defs><g clip-path="url(#97deea74ce)"><g clip-path="url(#96dbb0a85e)"><path fill="#622ec8" d="M 8.144531 129.863281 L 123.421875 129.863281 L 123.421875 245.136719 L 8.144531 245.136719 Z M 8.144531 129.863281 " fill-opacity="1" fill-rule="nonzero"/></g></g><g clip-path="url(#0278f69070)"><path fill="#fedd2b" d="M 65.527344 116.117188 L 104.089844 116.117188 L 73.503906 167.84375 L 96.109375 167.84375 L 27.628906 266.117188 L 58.214844 189.898438 L 33.613281 191.109375 Z M 65.527344 116.117188 " fill-opacity="1" fill-rule="nonzero"/></g><g clip-path="url(#87d6b99879)"><path fill="#f8cf29" d="M 65.527344 116.117188 L 72.175781 116.117188 L 33.613281 191.109375 Z M 27.628906 266.117188 L 62.867188 189.898438 L 58.214844 189.898438 Z M 27.628906 266.117188 " fill-opacity="1" fill-rule="nonzero"/></g><g fill="#000000" fill-opacity="1"><g transform="translate(142.656153, 192.292267)"><g><path d="M 18.34375 1.171875 C 13.707031 1.171875 10.140625 0.179688 7.640625 -1.796875 C 5.148438 -3.773438 3.90625 -6.296875 3.90625 -9.359375 C 3.90625 -11.390625 4.347656 -13.394531 5.234375 -15.375 C 5.597656 -16.3125 6.066406 -17.171875 6.640625 -17.953125 C 8.765625 -18.472656 11.078125 -18.941406 13.578125 -19.359375 C 19.203125 -20.296875 24.171875 -20.867188 28.484375 -21.078125 L 28.484375 -23.40625 C 28.484375 -29.1875 27.78125 -33.171875 26.375 -35.359375 C 24.96875 -37.546875 22.8125 -38.640625 19.90625 -38.640625 C 18.8125 -38.640625 17.875 -38.507812 17.09375 -38.25 L 16 -37.859375 L 16 -26.140625 L 14.984375 -25.90625 C 14.148438 -25.800781 13.445312 -25.75 12.875 -25.75 C 11.101562 -25.75 9.6875 -26.28125 8.625 -27.34375 C 7.5625 -28.414062 7.03125 -29.835938 7.03125 -31.609375 C 7.03125 -34.003906 8.238281 -36.03125 10.65625 -37.6875 C 13.070312 -39.351562 16.675781 -40.1875 21.46875 -40.1875 C 25.519531 -40.1875 29.015625 -39.472656 31.953125 -38.046875 C 34.898438 -36.617188 37.140625 -34.640625 38.671875 -32.109375 C 40.203125 -29.585938 40.96875 -26.6875 40.96875 -23.40625 L 40.96875 -2.34375 L 45.65625 -1.171875 L 45.65625 0 L 38.640625 0 C 35.515625 0 33.09375 -0.960938 31.375 -2.890625 C 30.644531 -3.671875 30.070312 -4.660156 29.65625 -5.859375 C 28.925781 -4.554688 28.066406 -3.382812 27.078125 -2.34375 C 24.734375 0 21.820312 1.171875 18.34375 1.171875 Z M 21.46875 -1.5625 C 23.382812 -1.5625 25.125 -2.601562 26.6875 -4.6875 C 27.257812 -5.46875 27.859375 -6.503906 28.484375 -7.796875 L 28.484375 -19.125 C 26.085938 -19.125 23.800781 -18.992188 21.625 -18.734375 C 20.007812 -18.523438 18.914062 -18.394531 18.34375 -18.34375 C 18.082031 -17.769531 17.820312 -16.988281 17.5625 -16 C 17.039062 -14.019531 16.78125 -12.066406 16.78125 -10.140625 C 16.78125 -7.234375 17.222656 -5.078125 18.109375 -3.671875 C 18.992188 -2.265625 20.113281 -1.5625 21.46875 -1.5625 Z M 21.46875 -1.5625 "/></g></g></g><g fill="#000000" fill-opacity="1"><g transform="translate(189.869845, 192.292267)"><g><path d="M 2.34375 14.4375 L 7.03125 13.265625 L 7.03125 -36.6875 L 2.34375 -37.859375 L 2.34375 -39.015625 L 9.359375 -39.015625 C 12.429688 -39.015625 14.851562 -38.03125 16.625 -36.0625 C 17.300781 -35.28125 17.875 -34.316406 18.34375 -33.171875 C 19.019531 -34.523438 19.878906 -35.695312 20.921875 -36.6875 C 23.253906 -39.019531 26.164062 -40.1875 29.65625 -40.1875 C 32.726562 -40.1875 35.457031 -39.394531 37.84375 -37.8125 C 40.238281 -36.226562 42.140625 -33.882812 43.546875 -30.78125 C 44.953125 -27.6875 45.65625 -23.929688 45.65625 -19.515625 C 45.65625 -12.847656 44.109375 -7.734375 41.015625 -4.171875 C 37.921875 -0.609375 33.742188 1.171875 28.484375 1.171875 C 25.984375 1.171875 23.800781 0.648438 21.9375 -0.390625 C 21.15625 -0.753906 20.347656 -1.273438 19.515625 -1.953125 L 19.515625 13.265625 L 24.1875 14.4375 L 24.1875 15.609375 L 2.34375 15.609375 Z M 25.359375 -1.171875 C 27.597656 -1.171875 29.328125 -2.46875 30.546875 -5.0625 C 31.773438 -7.664062 32.390625 -12.484375 32.390625 -19.515625 C 32.390625 -26.222656 31.828125 -30.890625 30.703125 -33.515625 C 29.585938 -36.148438 28.195312 -37.46875 26.53125 -37.46875 C 24.550781 -37.46875 22.785156 -36.425781 21.234375 -34.34375 C 20.554688 -33.457031 19.984375 -32.414062 19.515625 -31.21875 L 19.515625 -4.296875 C 20.242188 -3.566406 20.816406 -3.046875 21.234375 -2.734375 C 22.640625 -1.691406 24.015625 -1.171875 25.359375 -1.171875 Z M 25.359375 -1.171875 "/></g></g></g><g fill="#000000" fill-opacity="1"><g transform="translate(238.64433, 192.292267)"><g><path d="M 2.34375 14.4375 L 7.03125 13.265625 L 7.03125 -36.6875 L 2.34375 -37.859375 L 2.34375 -39.015625 L 9.359375 -39.015625 C 12.429688 -39.015625 14.851562 -38.03125 16.625 -36.0625 C 17.300781 -35.28125 17.875 -34.316406 18.34375 -33.171875 C 19.019531 -34.523438 19.878906 -35.695312 20.921875 -36.6875 C 23.253906 -39.019531 26.164062 -40.1875 29.65625 -40.1875 C 32.726562 -40.1875 35.457031 -39.394531 37.84375 -37.8125 C 40.238281 -36.226562 42.140625 -33.882812 43.546875 -30.78125 C 44.953125 -27.6875 45.65625 -23.929688 45.65625 -19.515625 C 45.65625 -12.847656 44.109375 -7.734375 41.015625 -4.171875 C 37.921875 -0.609375 33.742188 1.171875 28.484375 1.171875 C 25.984375 1.171875 23.800781 0.648438 21.9375 -0.390625 C 21.15625 -0.753906 20.347656 -1.273438 19.515625 -1.953125 L 19.515625 13.265625 L 24.1875 14.4375 L 24.1875 15.609375 L 2.34375 15.609375 Z M 25.359375 -1.171875 C 27.597656 -1.171875 29.328125 -2.46875 30.546875 -5.0625 C 31.773438 -7.664062 32.390625 -12.484375 32.390625 -19.515625 C 32.390625 -26.222656 31.828125 -30.890625 30.703125 -33.515625 C 29.585938 -36.148438 28.195312 -37.46875 26.53125 -37.46875 C 24.550781 -37.46875 22.785156 -36.425781 21.234375 -34.34375 C 20.554688 -33.457031 19.984375 -32.414062 19.515625 -31.21875 L 19.515625 -4.296875 C 20.242188 -3.566406 20.816406 -3.046875 21.234375 -2.734375 C 22.640625 -1.691406 24.015625 -1.171875 25.359375 -1.171875 Z M 25.359375 -1.171875 "/></g></g></g><g fill="#000000" fill-opacity="1"><g transform="translate(287.418814, 192.292267)"><g><path d="M 3.125 -1.171875 L 7.796875 -2.34375 L 7.796875 -52.296875 L 3.125 -53.46875 L 3.125 -54.625 L 13.265625 -54.625 C 17.953125 -54.625 20.296875 -52.285156 20.296875 -47.609375 L 20.296875 -2.34375 L 24.96875 -1.171875 L 24.96875 0 L 3.125 0 Z M 3.125 -1.171875 "/></g></g></g><g fill="#000000" fill-opacity="1"><g transform="translate(313.952126, 192.292267)"><g><path d="M 11.703125 16.78125 C 9.359375 16.78125 7.535156 16.15625 6.234375 14.90625 C 4.941406 13.65625 4.296875 11.9375 4.296875 9.75 C 4.296875 7.78125 4.828125 6.25 5.890625 5.15625 C 6.960938 4.0625 8.378906 3.515625 10.140625 3.515625 C 10.554688 3.515625 10.972656 3.550781 11.390625 3.625 C 11.804688 3.707031 12.09375 3.75 12.25 3.75 L 13.265625 3.90625 L 13.265625 14.4375 C 14.773438 14.175781 16.101562 13.34375 17.25 11.9375 C 18.394531 10.53125 19.671875 8.113281 21.078125 4.6875 L 22.640625 0.78125 L 2.34375 -36.6875 L -1.5625 -37.859375 L -1.5625 -39.015625 L 8.1875 -39.015625 C 10.894531 -39.015625 13.039062 -38.457031 14.625 -37.34375 C 16.21875 -36.226562 17.585938 -34.578125 18.734375 -32.390625 L 28.484375 -14.359375 L 36.6875 -35.515625 L 30.828125 -37.859375 L 30.828125 -39.015625 L 45.265625 -39.015625 L 45.265625 -37.859375 L 39.015625 -35.515625 L 23.40625 4.6875 C 21.75 8.945312 19.984375 12.023438 18.109375 13.921875 C 16.234375 15.828125 14.097656 16.78125 11.703125 16.78125 Z M 11.703125 16.78125 "/></g></g></g><g fill="#000000" fill-opacity="1"><g transform="translate(208.562051, 241.097519)"><g><path d="M 6.765625 -14.359375 L 13.671875 0 L 11.15625 0 L 9.921875 -2.8125 L 3.359375 -2.8125 L 2.125 0 L -0.3125 0 L 6.546875 -14.359375 Z M 5.796875 -8.25 L 4.234375 -4.78125 L 9.0625 -4.78125 L 7.53125 -8.234375 L 6.6875 -10.203125 L 6.65625 -10.203125 Z M 5.796875 -8.25 "/></g></g></g><g fill="#000000" fill-opacity="1"><g transform="translate(221.998727, 241.097519)"><g><path d="M 4.25 -12.421875 L 0.578125 -12.421875 L 0.578125 -14.328125 L 10.125 -14.328125 L 10.125 -12.421875 L 6.421875 -12.421875 L 6.421875 0 L 4.25 0 Z M 4.25 -12.421875 "/></g></g></g><g fill="#000000" fill-opacity="1"><g transform="translate(232.783168, 241.097519)"><g/></g></g><g fill="#000000" fill-opacity="1"><g transform="translate(237.639122, 241.097519)"><g><path d="M 4.8125 0.1875 C 4.03125 0.1875 3.253906 0.0507812 2.484375 -0.21875 C 1.722656 -0.488281 1.175781 -0.789062 0.84375 -1.125 L 1.875 -2.984375 C 2.144531 -2.734375 2.566406 -2.472656 3.140625 -2.203125 C 3.722656 -1.941406 4.28125 -1.8125 4.8125 -1.8125 C 5.5 -1.8125 6.0625 -1.972656 6.5 -2.296875 C 6.9375 -2.617188 7.15625 -3.066406 7.15625 -3.640625 C 7.15625 -4.085938 7.035156 -4.472656 6.796875 -4.796875 C 6.566406 -5.117188 6.28125 -5.382812 5.9375 -5.59375 C 5.601562 -5.8125 5.125 -6.078125 4.5 -6.390625 C 3.757812 -6.753906 3.253906 -7.03125 2.984375 -7.21875 C 1.722656 -8.0625 1.09375 -9.226562 1.09375 -10.71875 C 1.09375 -11.957031 1.5 -12.90625 2.3125 -13.5625 C 3.132812 -14.21875 4.171875 -14.546875 5.421875 -14.546875 C 6.753906 -14.546875 7.890625 -14.160156 8.828125 -13.390625 L 7.796875 -11.625 C 7.546875 -11.882812 7.195312 -12.109375 6.75 -12.296875 C 6.300781 -12.484375 5.828125 -12.578125 5.328125 -12.578125 C 4.671875 -12.578125 4.15625 -12.429688 3.78125 -12.140625 C 3.414062 -11.847656 3.234375 -11.414062 3.234375 -10.84375 C 3.234375 -10.4375 3.347656 -10.070312 3.578125 -9.75 C 3.816406 -9.4375 4.113281 -9.160156 4.46875 -8.921875 C 4.832031 -8.691406 5.316406 -8.410156 5.921875 -8.078125 C 6.515625 -7.742188 6.960938 -7.484375 7.265625 -7.296875 C 7.578125 -7.109375 7.875 -6.882812 8.15625 -6.625 C 8.53125 -6.289062 8.832031 -5.890625 9.0625 -5.421875 C 9.300781 -4.953125 9.421875 -4.4375 9.421875 -3.875 C 9.421875 -3.007812 9.222656 -2.269531 8.828125 -1.65625 C 8.429688 -1.039062 7.882812 -0.578125 7.1875 -0.265625 C 6.488281 0.0351562 5.695312 0.1875 4.8125 0.1875 Z M 4.8125 0.1875 "/></g></g></g><g fill="#000000" fill-opacity="1"><g transform="translate(247.955536, 241.097519)"><g><path d="M 8.03125 0.140625 C 6.550781 0.140625 5.265625 -0.191406 4.171875 -0.859375 C 3.085938 -1.523438 2.257812 -2.410156 1.6875 -3.515625 C 1.125 -4.628906 0.84375 -5.859375 0.84375 -7.203125 C 0.84375 -8.617188 1.148438 -9.882812 1.765625 -11 C 2.378906 -12.113281 3.242188 -12.984375 4.359375 -13.609375 C 5.484375 -14.242188 6.753906 -14.5625 8.171875 -14.5625 C 8.804688 -14.5625 9.398438 -14.492188 9.953125 -14.359375 C 10.503906 -14.222656 10.960938 -14.066406 11.328125 -13.890625 C 11.691406 -13.710938 11.929688 -13.566406 12.046875 -13.453125 L 11.09375 -11.5 C 10.300781 -12.207031 9.269531 -12.5625 8 -12.5625 C 7.101562 -12.5625 6.289062 -12.335938 5.5625 -11.890625 C 4.832031 -11.453125 4.257812 -10.820312 3.84375 -10 C 3.425781 -9.1875 3.21875 -8.238281 3.21875 -7.15625 C 3.21875 -6.164062 3.398438 -5.265625 3.765625 -4.453125 C 4.140625 -3.648438 4.679688 -3.015625 5.390625 -2.546875 C 6.109375 -2.085938 6.960938 -1.859375 7.953125 -1.859375 C 9.097656 -1.859375 10.203125 -2.179688 11.265625 -2.828125 L 11.921875 -0.96875 C 11.628906 -0.707031 11.101562 -0.457031 10.34375 -0.21875 C 9.582031 0.0195312 8.8125 0.140625 8.03125 0.140625 Z M 8.03125 0.140625 "/></g></g></g><g fill="#000000" fill-opacity="1"><g transform="translate(260.690149, 241.097519)"><g><path d="M 6.765625 -14.359375 L 13.671875 0 L 11.15625 0 L 9.921875 -2.8125 L 3.359375 -2.8125 L 2.125 0 L -0.3125 0 L 6.546875 -14.359375 Z M 5.796875 -8.25 L 4.234375 -4.78125 L 9.0625 -4.78125 L 7.53125 -8.234375 L 6.6875 -10.203125 L 6.65625 -10.203125 Z M 5.796875 -8.25 "/></g></g></g><g fill="#000000" fill-opacity="1"><g transform="translate(274.126826, 241.097519)"><g><path d="M 1.515625 -14.328125 L 3.71875 -14.328125 L 3.71875 -1.953125 L 7.84375 -1.953125 L 7.84375 0 L 1.515625 0 Z M 1.515625 -14.328125 "/></g></g></g><g fill="#000000" fill-opacity="1"><g transform="translate(282.629591, 241.097519)"><g><path d="M 1.5 -14.328125 L 7.78125 -14.328125 L 7.78125 -12.421875 L 3.671875 -12.421875 L 3.671875 -8.46875 L 6.984375 -8.46875 L 6.984375 -6.515625 L 3.671875 -6.515625 L 3.671875 -1.9375 L 8.421875 -1.9375 L 8.421875 0 L 1.5 0 Z M 1.5 -14.328125 "/></g></g></g></svg>