<svg xmlns="http://www.w3.org/2000/svg" xmlns:xlink="http://www.w3.org/1999/xlink" zoomAndPan="magnify" preserveAspectRatio="xMidYMid meet" version="1.0" viewBox="8.14 116.12 351.07 150"><defs><g/><clipPath id="bb7a250014"><path d="M 8.144531 129.863281 L 123.421875 129.863281 L 123.421875 245.136719 L 8.144531 245.136719 Z M 8.144531 129.863281 " clip-rule="nonzero"/></clipPath><clipPath id="18dcab1bce"><path d="M 65.785156 129.863281 C 33.949219 129.863281 8.144531 155.667969 8.144531 187.5 C 8.144531 219.332031 33.949219 245.136719 65.785156 245.136719 C 97.617188 245.136719 123.421875 219.332031 123.421875 187.5 C 123.421875 155.667969 97.617188 129.863281 65.785156 129.863281 " clip-rule="nonzero"/></clipPath><linearGradient x1="0.000000334122" gradientTransform="matrix(0.600394, 0, 0, 0.600394, 8.145482, 129.862137)" y1="0" x2="191.999988" gradientUnits="userSpaceOnUse" y2="0" id="013ea22c1d"><stop stop-opacity="1" stop-color="rgb(29.798889%, 31.799316%, 74.899292%)" offset="0"/><stop stop-opacity="1" stop-color="rgb(29.896545%, 31.944275%, 74.996948%)" offset="0.0078125"/><stop stop-opacity="1" stop-color="rgb(30.093384%, 32.234192%, 75.192261%)" offset="0.015625"/><stop stop-opacity="1" stop-color="rgb(30.288696%, 32.525635%, 75.389099%)" offset="0.0234375"/><stop stop-opacity="1" stop-color="rgb(30.485535%, 32.815552%, 75.585938%)" offset="0.03125"/><stop stop-opacity="1" stop-color="rgb(30.680847%, 33.106995%, 75.78125%)" offset="0.0390625"/><stop stop-opacity="1" stop-color="rgb(30.877686%, 33.396912%, 75.978088%)" offset="0.046875"/><stop stop-opacity="1" stop-color="rgb(31.072998%, 33.688354%, 76.173401%)" offset="0.0546875"/><stop stop-opacity="1" stop-color="rgb(31.269836%, 33.978271%, 76.370239%)" offset="0.0625"/><stop stop-opacity="1" stop-color="rgb(31.465149%, 34.269714%, 76.565552%)" offset="0.0703125"/><stop stop-opacity="1" stop-color="rgb(31.661987%, 34.559631%, 76.76239%)" offset="0.078125"/><stop stop-opacity="1" stop-color="rgb(31.8573%, 34.851074%, 76.957703%)" offset="0.0859375"/><stop stop-opacity="1" stop-color="rgb(32.054138%, 35.140991%, 77.154541%)" offset="0.09375"/><stop stop-opacity="1" stop-color="rgb(32.249451%, 35.432434%, 77.349854%)" offset="0.101562"/><stop stop-opacity="1" stop-color="rgb(32.446289%, 35.722351%, 77.546692%)" offset="0.109375"/><stop stop-opacity="1" stop-color="rgb(32.641602%, 36.012268%, 77.742004%)" offset="0.117188"/><stop stop-opacity="1" stop-color="rgb(32.83844%, 36.303711%, 77.938843%)" offset="0.125"/><stop stop-opacity="1" stop-color="rgb(33.033752%, 36.593628%, 78.134155%)" offset="0.132812"/><stop stop-opacity="1" stop-color="rgb(33.230591%, 36.885071%, 78.330994%)" offset="0.140625"/><stop stop-opacity="1" stop-color="rgb(33.425903%, 37.174988%, 78.526306%)" offset="0.148437"/><stop stop-opacity="1" stop-color="rgb(33.622742%, 37.466431%, 78.723145%)" offset="0.15625"/><stop stop-opacity="1" stop-color="rgb(33.818054%, 37.756348%, 78.918457%)" offset="0.164062"/><stop stop-opacity="1" stop-color="rgb(34.014893%, 38.047791%, 79.115295%)" offset="0.171875"/><stop stop-opacity="1" stop-color="rgb(34.210205%, 38.337708%, 79.310608%)" offset="0.179687"/><stop stop-opacity="1" stop-color="rgb(34.407043%, 38.62915%, 79.507446%)" offset="0.1875"/><stop stop-opacity="1" stop-color="rgb(34.603882%, 38.919067%, 79.702759%)" offset="0.195312"/><stop stop-opacity="1" stop-color="rgb(34.799194%, 39.21051%, 79.899597%)" offset="0.203125"/><stop stop-opacity="1" stop-color="rgb(34.996033%, 39.500427%, 80.09491%)" offset="0.210937"/><stop stop-opacity="1" stop-color="rgb(35.191345%, 39.790344%, 80.291748%)" offset="0.21875"/><stop stop-opacity="1" stop-color="rgb(35.388184%, 40.081787%, 80.487061%)" offset="0.226562"/><stop stop-opacity="1" stop-color="rgb(35.583496%, 40.371704%, 80.683899%)" offset="0.234375"/><stop stop-opacity="1" stop-color="rgb(35.780334%, 40.663147%, 80.879211%)" offset="0.242187"/><stop stop-opacity="1" stop-color="rgb(35.975647%, 40.953064%, 81.07605%)" offset="0.25"/><stop stop-opacity="1" stop-color="rgb(36.172485%, 41.244507%, 81.271362%)" offset="0.257812"/><stop stop-opacity="1" stop-color="rgb(36.367798%, 41.534424%, 81.468201%)" offset="0.265625"/><stop stop-opacity="1" stop-color="rgb(36.564636%, 41.825867%, 81.663513%)" offset="0.273438"/><stop stop-opacity="1" stop-color="rgb(36.759949%, 42.115784%, 81.860352%)" offset="0.28125"/><stop stop-opacity="1" stop-color="rgb(36.956787%, 42.407227%, 82.055664%)" offset="0.289063"/><stop stop-opacity="1" stop-color="rgb(37.1521%, 42.697144%, 82.252502%)" offset="0.296875"/><stop stop-opacity="1" stop-color="rgb(37.348938%, 42.988586%, 82.447815%)" offset="0.304688"/><stop stop-opacity="1" stop-color="rgb(37.54425%, 43.278503%, 82.644653%)" offset="0.3125"/><stop stop-opacity="1" stop-color="rgb(37.741089%, 43.569946%, 82.839966%)" offset="0.320312"/><stop stop-opacity="1" stop-color="rgb(37.936401%, 43.859863%, 83.036804%)" offset="0.328125"/><stop stop-opacity="1" stop-color="rgb(38.13324%, 44.14978%, 83.232117%)" offset="0.335938"/><stop stop-opacity="1" stop-color="rgb(38.328552%, 44.441223%, 83.428955%)" offset="0.34375"/><stop stop-opacity="1" stop-color="rgb(38.525391%, 44.73114%, 83.624268%)" offset="0.351562"/><stop stop-opacity="1" stop-color="rgb(38.720703%, 45.022583%, 83.821106%)" offset="0.359375"/><stop stop-opacity="1" stop-color="rgb(38.917542%, 45.3125%, 84.017944%)" offset="0.367188"/><stop stop-opacity="1" stop-color="rgb(39.112854%, 45.603943%, 84.213257%)" offset="0.375"/><stop stop-opacity="1" stop-color="rgb(39.309692%, 45.89386%, 84.410095%)" offset="0.382812"/><stop stop-opacity="1" stop-color="rgb(39.505005%, 46.185303%, 84.605408%)" offset="0.390625"/><stop stop-opacity="1" stop-color="rgb(39.701843%, 46.47522%, 84.802246%)" offset="0.398438"/><stop stop-opacity="1" stop-color="rgb(39.897156%, 46.766663%, 84.997559%)" offset="0.40625"/><stop stop-opacity="1" stop-color="rgb(40.093994%, 47.05658%, 85.194397%)" offset="0.414062"/><stop stop-opacity="1" stop-color="rgb(40.289307%, 47.348022%, 85.389709%)" offset="0.421875"/><stop stop-opacity="1" stop-color="rgb(40.486145%, 47.637939%, 85.586548%)" offset="0.429688"/><stop stop-opacity="1" stop-color="rgb(40.681458%, 47.927856%, 85.78186%)" offset="0.4375"/><stop stop-opacity="1" stop-color="rgb(40.878296%, 48.219299%, 85.978699%)" offset="0.445312"/><stop stop-opacity="1" stop-color="rgb(41.073608%, 48.509216%, 86.174011%)" offset="0.453125"/><stop stop-opacity="1" stop-color="rgb(41.270447%, 48.800659%, 86.37085%)" offset="0.460937"/><stop stop-opacity="1" stop-color="rgb(41.465759%, 49.090576%, 86.566162%)" offset="0.46875"/><stop stop-opacity="1" stop-color="rgb(41.662598%, 49.382019%, 86.763%)" offset="0.476562"/><stop stop-opacity="1" stop-color="rgb(41.85791%, 49.671936%, 86.958313%)" offset="0.484375"/><stop stop-opacity="1" stop-color="rgb(42.054749%, 49.963379%, 87.155151%)" offset="0.492188"/><stop stop-opacity="1" stop-color="rgb(42.250061%, 50.253296%, 87.350464%)" offset="0.5"/><stop stop-opacity="1" stop-color="rgb(42.446899%, 50.544739%, 87.547302%)" offset="0.507813"/><stop stop-opacity="1" stop-color="rgb(42.643738%, 50.834656%, 87.742615%)" offset="0.515625"/><stop stop-opacity="1" stop-color="rgb(42.83905%, 51.126099%, 87.939453%)" offset="0.523438"/><stop stop-opacity="1" stop-color="rgb(43.035889%, 51.416016%, 88.134766%)" offset="0.53125"/><stop stop-opacity="1" stop-color="rgb(43.231201%, 51.705933%, 88.331604%)" offset="0.539062"/><stop stop-opacity="1" stop-color="rgb(43.42804%, 51.997375%, 88.526917%)" offset="0.546875"/><stop stop-opacity="1" stop-color="rgb(43.623352%, 52.287292%, 88.723755%)" offset="0.554688"/><stop stop-opacity="1" stop-color="rgb(43.82019%, 52.578735%, 88.919067%)" offset="0.5625"/><stop stop-opacity="1" stop-color="rgb(44.015503%, 52.868652%, 89.115906%)" offset="0.570312"/><stop stop-opacity="1" stop-color="rgb(44.212341%, 53.160095%, 89.311218%)" offset="0.578125"/><stop stop-opacity="1" stop-color="rgb(44.407654%, 53.450012%, 89.508057%)" offset="0.585937"/><stop stop-opacity="1" stop-color="rgb(44.604492%, 53.741455%, 89.703369%)" offset="0.59375"/><stop stop-opacity="1" stop-color="rgb(44.799805%, 54.031372%, 89.900208%)" offset="0.601563"/><stop stop-opacity="1" stop-color="rgb(44.996643%, 54.322815%, 90.09552%)" offset="0.609375"/><stop stop-opacity="1" stop-color="rgb(45.191956%, 54.612732%, 90.292358%)" offset="0.617188"/><stop stop-opacity="1" stop-color="rgb(45.388794%, 54.904175%, 90.487671%)" offset="0.625"/><stop stop-opacity="1" stop-color="rgb(45.584106%, 55.194092%, 90.684509%)" offset="0.632812"/><stop stop-opacity="1" stop-color="rgb(45.780945%, 55.485535%, 90.879822%)" offset="0.640625"/><stop stop-opacity="1" stop-color="rgb(45.976257%, 55.775452%, 91.07666%)" offset="0.648438"/><stop stop-opacity="1" stop-color="rgb(46.173096%, 56.065369%, 91.271973%)" offset="0.65625"/><stop stop-opacity="1" stop-color="rgb(46.368408%, 56.356812%, 91.468811%)" offset="0.664062"/><stop stop-opacity="1" stop-color="rgb(46.565247%, 56.646729%, 91.664124%)" offset="0.671875"/><stop stop-opacity="1" stop-color="rgb(46.760559%, 56.938171%, 91.860962%)" offset="0.679687"/><stop stop-opacity="1" stop-color="rgb(46.957397%, 57.228088%, 92.0578%)" offset="0.6875"/><stop stop-opacity="1" stop-color="rgb(47.15271%, 57.519531%, 92.253113%)" offset="0.695312"/><stop stop-opacity="1" stop-color="rgb(47.349548%, 57.809448%, 92.449951%)" offset="0.703125"/><stop stop-opacity="1" stop-color="rgb(47.544861%, 58.100891%, 92.645264%)" offset="0.710938"/><stop stop-opacity="1" stop-color="rgb(47.741699%, 58.390808%, 92.842102%)" offset="0.71875"/><stop stop-opacity="1" stop-color="rgb(47.937012%, 58.682251%, 93.037415%)" offset="0.726562"/><stop stop-opacity="1" stop-color="rgb(48.13385%, 58.972168%, 93.234253%)" offset="0.734375"/><stop stop-opacity="1" stop-color="rgb(48.329163%, 59.263611%, 93.429565%)" offset="0.742188"/><stop stop-opacity="1" stop-color="rgb(48.526001%, 59.553528%, 93.626404%)" offset="0.75"/><stop stop-opacity="1" stop-color="rgb(48.721313%, 59.843445%, 93.821716%)" offset="0.757812"/><stop stop-opacity="1" stop-color="rgb(48.918152%, 60.134888%, 94.018555%)" offset="0.765625"/><stop stop-opacity="1" stop-color="rgb(49.113464%, 60.424805%, 94.213867%)" offset="0.773438"/><stop stop-opacity="1" stop-color="rgb(49.310303%, 60.716248%, 94.410706%)" offset="0.78125"/><stop stop-opacity="1" stop-color="rgb(49.505615%, 61.006165%, 94.606018%)" offset="0.789062"/><stop stop-opacity="1" stop-color="rgb(49.702454%, 61.297607%, 94.802856%)" offset="0.796875"/><stop stop-opacity="1" stop-color="rgb(49.897766%, 61.587524%, 94.998169%)" offset="0.804688"/><stop stop-opacity="1" stop-color="rgb(50.094604%, 61.878967%, 95.195007%)" offset="0.8125"/><stop stop-opacity="1" stop-color="rgb(50.289917%, 62.168884%, 95.39032%)" offset="0.820313"/><stop stop-opacity="1" stop-color="rgb(50.486755%, 62.460327%, 95.587158%)" offset="0.828125"/><stop stop-opacity="1" stop-color="rgb(50.682068%, 62.750244%, 95.782471%)" offset="0.835938"/><stop stop-opacity="1" stop-color="rgb(50.878906%, 63.041687%, 95.979309%)" offset="0.84375"/><stop stop-opacity="1" stop-color="rgb(51.075745%, 63.331604%, 96.174622%)" offset="0.851562"/><stop stop-opacity="1" stop-color="rgb(51.271057%, 63.623047%, 96.37146%)" offset="0.859375"/><stop stop-opacity="1" stop-color="rgb(51.467896%, 63.912964%, 96.566772%)" offset="0.867188"/><stop stop-opacity="1" stop-color="rgb(51.663208%, 64.202881%, 96.763611%)" offset="0.875"/><stop stop-opacity="1" stop-color="rgb(51.860046%, 64.494324%, 96.958923%)" offset="0.882812"/><stop stop-opacity="1" stop-color="rgb(52.055359%, 64.784241%, 97.155762%)" offset="0.890625"/><stop stop-opacity="1" stop-color="rgb(52.252197%, 65.075684%, 97.351074%)" offset="0.898437"/><stop stop-opacity="1" stop-color="rgb(52.44751%, 65.365601%, 97.547913%)" offset="0.90625"/><stop stop-opacity="1" stop-color="rgb(52.644348%, 65.657043%, 97.743225%)" offset="0.914063"/><stop stop-opacity="1" stop-color="rgb(52.839661%, 65.94696%, 97.940063%)" offset="0.921875"/><stop stop-opacity="1" stop-color="rgb(53.036499%, 66.238403%, 98.135376%)" offset="0.929688"/><stop stop-opacity="1" stop-color="rgb(53.231812%, 66.52832%, 98.332214%)" offset="0.9375"/><stop stop-opacity="1" stop-color="rgb(53.42865%, 66.819763%, 98.527527%)" offset="0.945312"/><stop stop-opacity="1" stop-color="rgb(53.623962%, 67.10968%, 98.724365%)" offset="0.953125"/><stop stop-opacity="1" stop-color="rgb(53.820801%, 67.401123%, 98.919678%)" offset="0.960938"/><stop stop-opacity="1" stop-color="rgb(54.016113%, 67.69104%, 99.116516%)" offset="0.96875"/><stop stop-opacity="1" stop-color="rgb(54.212952%, 67.980957%, 99.311829%)" offset="0.976562"/><stop stop-opacity="1" stop-color="rgb(54.408264%, 68.2724%, 99.508667%)" offset="0.984375"/><stop stop-opacity="1" stop-color="rgb(54.605103%, 68.562317%, 99.703979%)" offset="0.992187"/><stop stop-opacity="1" stop-color="rgb(54.800415%, 68.85376%, 99.900818%)" offset="1"/></linearGradient><clipPath id="6294a78fad"><path d="M 27.601562 116.117188 L 104.101562 116.117188 L 104.101562 266.117188 L 27.601562 266.117188 Z M 27.601562 116.117188 " clip-rule="nonzero"/></clipPath><clipPath id="ec313c83a5"><path d="M 27.601562 116.117188 L 73 116.117188 L 73 266.117188 L 27.601562 266.117188 Z M 27.601562 116.117188 " clip-rule="nonzero"/></clipPath></defs><g clip-path="url(#bb7a250014)"><g clip-path="url(#18dcab1bce)"><path fill="url(#013ea22c1d)" d="M 8.144531 129.863281 L 8.144531 245.136719 L 123.421875 245.136719 L 123.421875 129.863281 Z M 8.144531 129.863281 " fill-rule="nonzero"/></g></g><g clip-path="url(#6294a78fad)"><path fill="#fedd2b" d="M 65.527344 116.117188 L 104.089844 116.117188 L 73.503906 167.84375 L 96.109375 167.84375 L 27.628906 266.117188 L 58.214844 189.898438 L 33.613281 191.109375 Z M 65.527344 116.117188 " fill-opacity="1" fill-rule="nonzero"/></g><g clip-path="url(#ec313c83a5)"><path fill="#f8cf29" d="M 65.527344 116.117188 L 72.175781 116.117188 L 33.613281 191.109375 Z M 27.628906 266.117188 L 62.867188 189.898438 L 58.214844 189.898438 Z M 27.628906 266.117188 " fill-opacity="1" fill-rule="nonzero"/></g><g fill="#000000" fill-opacity="1"><g transform="translate(142.656153, 192.292267)"><g><path d="M 18.34375 1.171875 C 13.707031 1.171875 10.140625 0.179688 7.640625 -1.796875 C 5.148438 -3.773438 3.90625 -6.296875 3.90625 -9.359375 C 3.90625 -11.390625 4.347656 -13.394531 5.234375 -15.375 C 5.597656 -16.3125 6.066406 -17.171875 6.640625 -17.953125 C 8.765625 -18.472656 11.078125 -18.941406 13.578125 -19.359375 C 19.203125 -20.296875 24.171875 -20.867188 28.484375 -21.078125 L 28.484375 -23.40625 C 28.484375 -29.1875 27.78125 -33.171875 26.375 -35.359375 C 24.96875 -37.546875 22.8125 -38.640625 19.90625 -38.640625 C 18.8125 -38.640625 17.875 -38.507812 17.09375 -38.25 L 16 -37.859375 L 16 -26.140625 L 14.984375 -25.90625 C 14.148438 -25.800781 13.445312 -25.75 12.875 -25.75 C 11.101562 -25.75 9.6875 -26.28125 8.625 -27.34375 C 7.5625 -28.414062 7.03125 -29.835938 7.03125 -31.609375 C 7.03125 -34.003906 8.238281 -36.03125 10.65625 -37.6875 C 13.070312 -39.351562 16.675781 -40.1875 21.46875 -40.1875 C 25.519531 -40.1875 29.015625 -39.472656 31.953125 -38.046875 C 34.898438 -36.617188 37.140625 -34.640625 38.671875 -32.109375 C 40.203125 -29.585938 40.96875 -26.6875 40.96875 -23.40625 L 40.96875 -2.34375 L 45.65625 -1.171875 L 45.65625 0 L 38.640625 0 C 35.515625 0 33.09375 -0.960938 31.375 -2.890625 C 30.644531 -3.671875 30.070312 -4.660156 29.65625 -5.859375 C 28.925781 -4.554688 28.066406 -3.382812 27.078125 -2.34375 C 24.734375 0 21.820312 1.171875 18.34375 1.171875 Z M 21.46875 -1.5625 C 23.382812 -1.5625 25.125 -2.601562 26.6875 -4.6875 C 27.257812 -5.46875 27.859375 -6.503906 28.484375 -7.796875 L 28.484375 -19.125 C 26.085938 -19.125 23.800781 -18.992188 21.625 -18.734375 C 20.007812 -18.523438 18.914062 -18.394531 18.34375 -18.34375 C 18.082031 -17.769531 17.820312 -16.988281 17.5625 -16 C 17.039062 -14.019531 16.78125 -12.066406 16.78125 -10.140625 C 16.78125 -7.234375 17.222656 -5.078125 18.109375 -3.671875 C 18.992188 -2.265625 20.113281 -1.5625 21.46875 -1.5625 Z M 21.46875 -1.5625 "/></g></g></g><g fill="#000000" fill-opacity="1"><g transform="translate(189.869845, 192.292267)"><g><path d="M 2.34375 14.4375 L 7.03125 13.265625 L 7.03125 -36.6875 L 2.34375 -37.859375 L 2.34375 -39.015625 L 9.359375 -39.015625 C 12.429688 -39.015625 14.851562 -38.03125 16.625 -36.0625 C 17.300781 -35.28125 17.875 -34.316406 18.34375 -33.171875 C 19.019531 -34.523438 19.878906 -35.695312 20.921875 -36.6875 C 23.253906 -39.019531 26.164062 -40.1875 29.65625 -40.1875 C 32.726562 -40.1875 35.457031 -39.394531 37.84375 -37.8125 C 40.238281 -36.226562 42.140625 -33.882812 43.546875 -30.78125 C 44.953125 -27.6875 45.65625 -23.929688 45.65625 -19.515625 C 45.65625 -12.847656 44.109375 -7.734375 41.015625 -4.171875 C 37.921875 -0.609375 33.742188 1.171875 28.484375 1.171875 C 25.984375 1.171875 23.800781 0.648438 21.9375 -0.390625 C 21.15625 -0.753906 20.347656 -1.273438 19.515625 -1.953125 L 19.515625 13.265625 L 24.1875 14.4375 L 24.1875 15.609375 L 2.34375 15.609375 Z M 25.359375 -1.171875 C 27.597656 -1.171875 29.328125 -2.46875 30.546875 -5.0625 C 31.773438 -7.664062 32.390625 -12.484375 32.390625 -19.515625 C 32.390625 -26.222656 31.828125 -30.890625 30.703125 -33.515625 C 29.585938 -36.148438 28.195312 -37.46875 26.53125 -37.46875 C 24.550781 -37.46875 22.785156 -36.425781 21.234375 -34.34375 C 20.554688 -33.457031 19.984375 -32.414062 19.515625 -31.21875 L 19.515625 -4.296875 C 20.242188 -3.566406 20.816406 -3.046875 21.234375 -2.734375 C 22.640625 -1.691406 24.015625 -1.171875 25.359375 -1.171875 Z M 25.359375 -1.171875 "/></g></g></g><g fill="#000000" fill-opacity="1"><g transform="translate(238.64433, 192.292267)"><g><path d="M 2.34375 14.4375 L 7.03125 13.265625 L 7.03125 -36.6875 L 2.34375 -37.859375 L 2.34375 -39.015625 L 9.359375 -39.015625 C 12.429688 -39.015625 14.851562 -38.03125 16.625 -36.0625 C 17.300781 -35.28125 17.875 -34.316406 18.34375 -33.171875 C 19.019531 -34.523438 19.878906 -35.695312 20.921875 -36.6875 C 23.253906 -39.019531 26.164062 -40.1875 29.65625 -40.1875 C 32.726562 -40.1875 35.457031 -39.394531 37.84375 -37.8125 C 40.238281 -36.226562 42.140625 -33.882812 43.546875 -30.78125 C 44.953125 -27.6875 45.65625 -23.929688 45.65625 -19.515625 C 45.65625 -12.847656 44.109375 -7.734375 41.015625 -4.171875 C 37.921875 -0.609375 33.742188 1.171875 28.484375 1.171875 C 25.984375 1.171875 23.800781 0.648438 21.9375 -0.390625 C 21.15625 -0.753906 20.347656 -1.273438 19.515625 -1.953125 L 19.515625 13.265625 L 24.1875 14.4375 L 24.1875 15.609375 L 2.34375 15.609375 Z M 25.359375 -1.171875 C 27.597656 -1.171875 29.328125 -2.46875 30.546875 -5.0625 C 31.773438 -7.664062 32.390625 -12.484375 32.390625 -19.515625 C 32.390625 -26.222656 31.828125 -30.890625 30.703125 -33.515625 C 29.585938 -36.148438 28.195312 -37.46875 26.53125 -37.46875 C 24.550781 -37.46875 22.785156 -36.425781 21.234375 -34.34375 C 20.554688 -33.457031 19.984375 -32.414062 19.515625 -31.21875 L 19.515625 -4.296875 C 20.242188 -3.566406 20.816406 -3.046875 21.234375 -2.734375 C 22.640625 -1.691406 24.015625 -1.171875 25.359375 -1.171875 Z M 25.359375 -1.171875 "/></g></g></g><g fill="#000000" fill-opacity="1"><g transform="translate(287.418814, 192.292267)"><g><path d="M 3.125 -1.171875 L 7.796875 -2.34375 L 7.796875 -52.296875 L 3.125 -53.46875 L 3.125 -54.625 L 13.265625 -54.625 C 17.953125 -54.625 20.296875 -52.285156 20.296875 -47.609375 L 20.296875 -2.34375 L 24.96875 -1.171875 L 24.96875 0 L 3.125 0 Z M 3.125 -1.171875 "/></g></g></g><g fill="#000000" fill-opacity="1"><g transform="translate(313.952126, 192.292267)"><g><path d="M 11.703125 16.78125 C 9.359375 16.78125 7.535156 16.15625 6.234375 14.90625 C 4.941406 13.65625 4.296875 11.9375 4.296875 9.75 C 4.296875 7.78125 4.828125 6.25 5.890625 5.15625 C 6.960938 4.0625 8.378906 3.515625 10.140625 3.515625 C 10.554688 3.515625 10.972656 3.550781 11.390625 3.625 C 11.804688 3.707031 12.09375 3.75 12.25 3.75 L 13.265625 3.90625 L 13.265625 14.4375 C 14.773438 14.175781 16.101562 13.34375 17.25 11.9375 C 18.394531 10.53125 19.671875 8.113281 21.078125 4.6875 L 22.640625 0.78125 L 2.34375 -36.6875 L -1.5625 -37.859375 L -1.5625 -39.015625 L 8.1875 -39.015625 C 10.894531 -39.015625 13.039062 -38.457031 14.625 -37.34375 C 16.21875 -36.226562 17.585938 -34.578125 18.734375 -32.390625 L 28.484375 -14.359375 L 36.6875 -35.515625 L 30.828125 -37.859375 L 30.828125 -39.015625 L 45.265625 -39.015625 L 45.265625 -37.859375 L 39.015625 -35.515625 L 23.40625 4.6875 C 21.75 8.945312 19.984375 12.023438 18.109375 13.921875 C 16.234375 15.828125 14.097656 16.78125 11.703125 16.78125 Z M 11.703125 16.78125 "/></g></g></g><g fill="#000000" fill-opacity="1"><g transform="translate(197.899709, 236.087591)"><g><path d="M 8.5 -18.046875 L 17.1875 0 L 14.015625 0 L 12.484375 -3.53125 L 4.21875 -3.53125 L 2.671875 0 L -0.390625 0 L 8.234375 -18.046875 Z M 7.28125 -10.375 L 5.3125 -6 L 11.40625 -6 L 9.46875 -10.34375 L 8.40625 -12.828125 L 8.359375 -12.828125 Z M 7.28125 -10.375 "/></g></g></g><g fill="#000000" fill-opacity="1"><g transform="translate(214.782957, 236.087591)"><g><path d="M 5.34375 -15.609375 L 0.734375 -15.609375 L 0.734375 -18.015625 L 12.71875 -18.015625 L 12.71875 -15.609375 L 8.0625 -15.609375 L 8.0625 0 L 5.34375 0 Z M 5.34375 -15.609375 "/></g></g></g><g fill="#000000" fill-opacity="1"><g transform="translate(228.333673, 236.087591)"><g/></g></g><g fill="#000000" fill-opacity="1"><g transform="translate(234.43519, 236.087591)"><g><path d="M 6.0625 0.25 C 5.070312 0.25 4.09375 0.078125 3.125 -0.265625 C 2.164062 -0.609375 1.472656 -0.992188 1.046875 -1.421875 L 2.359375 -3.75 C 2.703125 -3.4375 3.234375 -3.113281 3.953125 -2.78125 C 4.679688 -2.445312 5.382812 -2.28125 6.0625 -2.28125 C 6.925781 -2.28125 7.628906 -2.484375 8.171875 -2.890625 C 8.722656 -3.296875 9 -3.859375 9 -4.578125 C 9 -5.140625 8.847656 -5.625 8.546875 -6.03125 C 8.253906 -6.4375 7.894531 -6.773438 7.46875 -7.046875 C 7.050781 -7.316406 6.445312 -7.648438 5.65625 -8.046875 C 4.726562 -8.503906 4.09375 -8.847656 3.75 -9.078125 C 2.164062 -10.140625 1.375 -11.609375 1.375 -13.484375 C 1.375 -15.035156 1.890625 -16.222656 2.921875 -17.046875 C 3.953125 -17.867188 5.25 -18.28125 6.8125 -18.28125 C 8.5 -18.28125 9.929688 -17.800781 11.109375 -16.84375 L 9.8125 -14.609375 C 9.5 -14.941406 9.0625 -15.222656 8.5 -15.453125 C 7.9375 -15.691406 7.332031 -15.8125 6.6875 -15.8125 C 5.875 -15.8125 5.234375 -15.625 4.765625 -15.25 C 4.296875 -14.882812 4.0625 -14.34375 4.0625 -13.625 C 4.0625 -13.125 4.207031 -12.671875 4.5 -12.265625 C 4.800781 -11.867188 5.175781 -11.519531 5.625 -11.21875 C 6.070312 -10.925781 6.679688 -10.570312 7.453125 -10.15625 C 8.191406 -9.738281 8.753906 -9.410156 9.140625 -9.171875 C 9.535156 -8.941406 9.90625 -8.660156 10.25 -8.328125 C 10.71875 -7.910156 11.097656 -7.40625 11.390625 -6.8125 C 11.691406 -6.226562 11.84375 -5.582031 11.84375 -4.875 C 11.84375 -3.78125 11.59375 -2.847656 11.09375 -2.078125 C 10.59375 -1.316406 9.90625 -0.738281 9.03125 -0.34375 C 8.15625 0.0507812 7.164062 0.25 6.0625 0.25 Z M 6.0625 0.25 "/></g></g></g><g fill="#000000" fill-opacity="1"><g transform="translate(247.397806, 236.087591)"><g><path d="M 10.09375 0.171875 C 8.238281 0.171875 6.628906 -0.242188 5.265625 -1.078125 C 3.898438 -1.910156 2.851562 -3.023438 2.125 -4.421875 C 1.40625 -5.816406 1.046875 -7.359375 1.046875 -9.046875 C 1.046875 -10.828125 1.4375 -12.421875 2.21875 -13.828125 C 3 -15.234375 4.085938 -16.332031 5.484375 -17.125 C 6.890625 -17.914062 8.484375 -18.3125 10.265625 -18.3125 C 11.066406 -18.3125 11.816406 -18.222656 12.515625 -18.046875 C 13.210938 -17.878906 13.789062 -17.6875 14.25 -17.46875 C 14.707031 -17.25 15.007812 -17.066406 15.15625 -16.921875 L 13.953125 -14.46875 C 12.953125 -15.34375 11.648438 -15.78125 10.046875 -15.78125 C 8.921875 -15.78125 7.898438 -15.503906 6.984375 -14.953125 C 6.066406 -14.398438 5.347656 -13.609375 4.828125 -12.578125 C 4.304688 -11.546875 4.046875 -10.351562 4.046875 -9 C 4.046875 -7.757812 4.273438 -6.628906 4.734375 -5.609375 C 5.203125 -4.597656 5.882812 -3.796875 6.78125 -3.203125 C 7.6875 -2.617188 8.757812 -2.328125 10 -2.328125 C 11.4375 -2.328125 12.828125 -2.738281 14.171875 -3.5625 L 14.984375 -1.21875 C 14.617188 -0.894531 13.957031 -0.582031 13 -0.28125 C 12.050781 0.0195312 11.082031 0.171875 10.09375 0.171875 Z M 10.09375 0.171875 "/></g></g></g><g fill="#000000" fill-opacity="1"><g transform="translate(263.398923, 236.087591)"><g><path d="M 8.5 -18.046875 L 17.1875 0 L 14.015625 0 L 12.484375 -3.53125 L 4.21875 -3.53125 L 2.671875 0 L -0.390625 0 L 8.234375 -18.046875 Z M 7.28125 -10.375 L 5.3125 -6 L 11.40625 -6 L 9.46875 -10.34375 L 8.40625 -12.828125 L 8.359375 -12.828125 Z M 7.28125 -10.375 "/></g></g></g><g fill="#000000" fill-opacity="1"><g transform="translate(280.282173, 236.087591)"><g><path d="M 1.90625 -18.015625 L 4.6875 -18.015625 L 4.6875 -2.453125 L 9.859375 -2.453125 L 9.859375 0 L 1.90625 0 Z M 1.90625 -18.015625 "/></g></g></g><g fill="#000000" fill-opacity="1"><g transform="translate(290.965925, 236.087591)"><g><path d="M 1.890625 -18.015625 L 9.78125 -18.015625 L 9.78125 -15.609375 L 4.609375 -15.609375 L 4.609375 -10.640625 L 8.78125 -10.640625 L 8.78125 -8.1875 L 4.609375 -8.1875 L 4.609375 -2.421875 L 10.59375 -2.421875 L 10.59375 0 L 1.890625 0 Z M 1.890625 -18.015625 "/></g></g></g></svg>